<svg width="301" height="210" viewBox="0 0 301 210" fill="none" xmlns="http://www.w3.org/2000/svg">
<g filter="url(#filter0_d_630_55)">
<path d="M8.28859 96.76C8.28859 66.7733 13.6619 43.2867 24.4086 26.3C35.3286 9.31332 53.3553 0.819992 78.4886 0.819992C103.622 0.819992 121.562 9.31332 132.309 26.3C143.229 43.2867 148.689 66.7733 148.689 96.76C148.689 126.92 143.229 150.58 132.309 167.74C121.562 184.9 103.622 193.48 78.4886 193.48C53.3553 193.48 35.3286 184.9 24.4086 167.74C13.6619 150.58 8.28859 126.92 8.28859 96.76ZM112.809 96.76C112.809 83.9333 111.942 73.1867 110.209 64.52C108.649 55.68 105.355 48.4867 100.329 42.94C95.4753 37.3933 88.1953 34.62 78.4886 34.62C68.7819 34.62 61.4153 37.3933 56.3886 42.94C51.5353 48.4867 48.2419 55.68 46.5086 64.52C44.9486 73.1867 44.1686 83.9333 44.1686 96.76C44.1686 109.933 44.9486 121.027 46.5086 130.04C48.0686 138.88 51.3619 146.073 56.3886 151.62C61.4153 156.993 68.7819 159.68 78.4886 159.68C88.1953 159.68 95.5619 156.993 100.589 151.62C105.615 146.073 108.909 138.88 110.469 130.04C112.029 121.027 112.809 109.933 112.809 96.76ZM177.415 152.92C194.055 139.053 207.315 127.527 217.195 118.34C227.075 108.98 235.308 99.2733 241.895 89.22C248.481 79.1667 251.775 69.2867 251.775 59.58C251.775 50.74 249.695 43.8067 245.535 38.78C241.375 33.7533 234.961 31.24 226.295 31.24C217.628 31.24 210.955 34.1867 206.275 40.08C201.595 45.8 199.168 53.6867 198.995 63.74H163.635C164.328 42.94 170.481 27.1667 182.095 16.42C193.881 5.67332 208.788 0.299983 226.815 0.299983C246.575 0.299983 261.741 5.58665 272.315 16.16C282.888 26.56 288.175 40.34 288.175 57.5C288.175 71.02 284.535 83.9333 277.255 96.24C269.975 108.547 261.655 119.293 252.295 128.48C242.935 137.493 230.715 148.413 215.635 161.24H292.335V191.4H163.895V164.36L177.415 152.92Z" fill="white"/>
</g>
<defs>
<filter id="filter0_d_630_55" x="0.288574" y="0.299927" width="300.046" height="209.18" filterUnits="userSpaceOnUse" color-interpolation-filters="sRGB">
<feFlood flood-opacity="0" result="BackgroundImageFix"/>
<feColorMatrix in="SourceAlpha" type="matrix" values="0 0 0 0 0 0 0 0 0 0 0 0 0 0 0 0 0 0 127 0" result="hardAlpha"/>
<feOffset dy="8"/>
<feGaussianBlur stdDeviation="4"/>
<feComposite in2="hardAlpha" operator="out"/>
<feColorMatrix type="matrix" values="0 0 0 0 0.0809722 0 0 0 0 0.971667 0 0 0 0 0.276925 0 0 0 0.52 0"/>
<feBlend mode="normal" in2="BackgroundImageFix" result="effect1_dropShadow_630_55"/>
<feBlend mode="normal" in="SourceGraphic" in2="effect1_dropShadow_630_55" result="shape"/>
</filter>
</defs>
</svg>
