<svg width="301" height="212" viewBox="0 0 301 212" fill="none" xmlns="http://www.w3.org/2000/svg">
<g filter="url(#filter0_d_630_56)">
<path d="M8.11476 96.76C8.11476 66.7733 13.4881 43.2867 24.2348 26.3C35.1548 9.31332 53.1814 0.819992 78.3148 0.819992C103.448 0.819992 121.388 9.31332 132.135 26.3C143.055 43.2867 148.515 66.7733 148.515 96.76C148.515 126.92 143.055 150.58 132.135 167.74C121.388 184.9 103.448 193.48 78.3148 193.48C53.1814 193.48 35.1548 184.9 24.2348 167.74C13.4881 150.58 8.11476 126.92 8.11476 96.76ZM112.635 96.76C112.635 83.9333 111.768 73.1867 110.035 64.52C108.475 55.68 105.181 48.4867 100.155 42.94C95.3014 37.3933 88.0214 34.62 78.3148 34.62C68.6081 34.62 61.2414 37.3933 56.2148 42.94C51.3614 48.4867 48.0681 55.68 46.3348 64.52C44.7748 73.1867 43.9948 83.9333 43.9948 96.76C43.9948 109.933 44.7748 121.027 46.3348 130.04C47.8948 138.88 51.1881 146.073 56.2148 151.62C61.2414 156.993 68.6081 159.68 78.3148 159.68C88.0214 159.68 95.3881 156.993 100.415 151.62C105.441 146.073 108.735 138.88 110.295 130.04C111.855 121.027 112.635 109.933 112.635 96.76ZM166.321 54.38C167.187 37.0467 173.254 23.7 184.521 14.34C195.961 4.80665 210.954 0.0399866 229.501 0.0399866C242.154 0.0399866 252.987 2.29332 262.001 6.79999C271.014 11.1333 277.774 17.1133 282.281 24.74C286.961 32.1933 289.301 40.6867 289.301 50.22C289.301 61.14 286.441 70.4133 280.721 78.04C275.174 85.4933 268.501 90.52 260.701 93.12V94.16C270.754 97.28 278.554 102.827 284.101 110.8C289.821 118.773 292.681 129 292.681 141.48C292.681 151.88 290.254 161.153 285.401 169.3C280.721 177.447 273.701 183.86 264.341 188.54C255.154 193.047 244.061 195.3 231.061 195.3C211.474 195.3 195.527 190.36 183.221 180.48C170.914 170.6 164.414 156.04 163.721 136.8H199.081C199.427 145.293 202.287 152.14 207.661 157.34C213.207 162.367 220.747 164.88 230.281 164.88C239.121 164.88 245.881 162.453 250.561 157.6C255.414 152.573 257.841 146.16 257.841 138.36C257.841 127.96 254.547 120.507 247.961 116C241.374 111.493 231.147 109.24 217.281 109.24H209.741V79.34H217.281C241.894 79.34 254.201 71.1067 254.201 54.64C254.201 47.1867 251.947 41.38 247.441 37.22C243.107 33.06 236.781 30.98 228.461 30.98C220.314 30.98 213.987 33.2333 209.481 37.74C205.147 42.0733 202.634 47.62 201.941 54.38H166.321Z" fill="white"/>
</g>
<defs>
<filter id="filter0_d_630_56" x="0.114746" y="0.0400391" width="300.566" height="211.26" filterUnits="userSpaceOnUse" color-interpolation-filters="sRGB">
<feFlood flood-opacity="0" result="BackgroundImageFix"/>
<feColorMatrix in="SourceAlpha" type="matrix" values="0 0 0 0 0 0 0 0 0 0 0 0 0 0 0 0 0 0 127 0" result="hardAlpha"/>
<feOffset dy="8"/>
<feGaussianBlur stdDeviation="4"/>
<feComposite in2="hardAlpha" operator="out"/>
<feColorMatrix type="matrix" values="0 0 0 0 1 0 0 0 0 0.966267 0 0 0 0 0.156667 0 0 0 0.52 0"/>
<feBlend mode="normal" in2="BackgroundImageFix" result="effect1_dropShadow_630_56"/>
<feBlend mode="normal" in="SourceGraphic" in2="effect1_dropShadow_630_56" result="shape"/>
</filter>
</defs>
</svg>
