<svg width="324" height="210" viewBox="0 0 324 210" fill="none" xmlns="http://www.w3.org/2000/svg">
<g filter="url(#filter0_d_630_57)">
<path d="M8.98976 96.76C8.98976 66.7733 14.3631 43.2867 25.1098 26.3C36.0298 9.31332 54.0564 0.819992 79.1898 0.819992C104.323 0.819992 122.263 9.31332 133.01 26.3C143.93 43.2867 149.39 66.7733 149.39 96.76C149.39 126.92 143.93 150.58 133.01 167.74C122.263 184.9 104.323 193.48 79.1898 193.48C54.0564 193.48 36.0298 184.9 25.1098 167.74C14.3631 150.58 8.98976 126.92 8.98976 96.76ZM113.51 96.76C113.51 83.9333 112.643 73.1867 110.91 64.52C109.35 55.68 106.056 48.4867 101.03 42.94C96.1764 37.3933 88.8964 34.62 79.1898 34.62C69.4831 34.62 62.1164 37.3933 57.0898 42.94C52.2364 48.4867 48.9431 55.68 47.2098 64.52C45.6498 73.1867 44.8698 83.9333 44.8698 96.76C44.8698 109.933 45.6498 121.027 47.2098 130.04C48.7698 138.88 52.0631 146.073 57.0898 151.62C62.1164 156.993 69.4831 159.68 79.1898 159.68C88.8964 159.68 96.2631 156.993 101.29 151.62C106.316 146.073 109.61 138.88 111.17 130.04C112.73 121.027 113.51 109.933 113.51 96.76ZM165.116 157.08V128.48L250.136 6.79999H292.516V125.36H315.396V157.08H292.516V194H256.116V157.08H165.116ZM258.456 45.8L205.156 125.36H258.456V45.8Z" fill="white"/>
</g>
<defs>
<filter id="filter0_d_630_57" x="0.989746" y="0.820068" width="322.406" height="209.18" filterUnits="userSpaceOnUse" color-interpolation-filters="sRGB">
<feFlood flood-opacity="0" result="BackgroundImageFix"/>
<feColorMatrix in="SourceAlpha" type="matrix" values="0 0 0 0 0 0 0 0 0 0 0 0 0 0 0 0 0 0 127 0" result="hardAlpha"/>
<feOffset dy="8"/>
<feGaussianBlur stdDeviation="4"/>
<feComposite in2="hardAlpha" operator="out"/>
<feColorMatrix type="matrix" values="0 0 0 0 0.19 0 0 0 0 0.8542 0 0 0 0 1 0 0 0 0.52 0"/>
<feBlend mode="normal" in2="BackgroundImageFix" result="effect1_dropShadow_630_57"/>
<feBlend mode="normal" in="SourceGraphic" in2="effect1_dropShadow_630_57" result="shape"/>
</filter>
</defs>
</svg>
