<svg width="201" height="50" viewBox="0 0 201 50" fill="none" xmlns="http://www.w3.org/2000/svg">
<g filter="url(#filter0_i_606_126)">
<rect y="0.408325" width="200.935" height="48.9186" rx="24.4593" fill="white"/>
</g>
<path d="M33.4608 32.9347V18.5534H42.1402V20.0983H35.2023V24.9576H41.6908V26.5024H35.2023V31.3898H42.2525V32.9347H33.4608ZM50.8383 24.9716V26.5165H44.5465V24.9716H50.8383ZM70.3219 23.0476H68.5805C68.4775 22.5466 68.2972 22.1066 68.0397 21.7274C67.787 21.3482 67.478 21.0299 67.1128 20.7724C66.7524 20.5102 66.3521 20.3136 65.912 20.1825C65.472 20.0515 65.0132 19.9859 64.5357 19.9859C63.665 19.9859 62.8762 20.2059 62.1693 20.646C61.4671 21.086 60.9076 21.7344 60.491 22.5911C60.079 23.4478 59.873 24.4988 59.873 25.7441C59.873 26.9893 60.079 28.0403 60.491 28.897C60.9076 29.7537 61.4671 30.4021 62.1693 30.8421C62.8762 31.2822 63.665 31.5022 64.5357 31.5022C65.0132 31.5022 65.472 31.4366 65.912 31.3056C66.3521 31.1745 66.7524 30.9802 67.1128 30.7227C67.478 30.4606 67.787 30.1399 68.0397 29.7607C68.2972 29.3768 68.4775 28.9368 68.5805 28.4405H70.3219C70.1909 29.1755 69.9521 29.8333 69.6057 30.4138C69.2593 30.9942 68.8286 31.4881 68.3136 31.8954C67.7987 32.298 67.2205 32.6047 66.5791 32.8153C65.9425 33.026 65.2613 33.1313 64.5357 33.1313C63.3092 33.1313 62.2184 32.8317 61.2634 32.2325C60.3084 31.6333 59.557 30.7812 59.0093 29.6764C58.4616 28.5716 58.1877 27.2608 58.1877 25.7441C58.1877 24.2273 58.4616 22.9165 59.0093 21.8117C59.557 20.7069 60.3084 19.8548 61.2634 19.2556C62.2184 18.6564 63.3092 18.3568 64.5357 18.3568C65.2613 18.3568 65.9425 18.4621 66.5791 18.6728C67.2205 18.8834 67.7987 19.1924 68.3136 19.5997C68.8286 20.0023 69.2593 20.4939 69.6057 21.0743C69.9521 21.6502 70.1909 22.3079 70.3219 23.0476ZM84.8748 25.7441C84.8748 27.2608 84.6009 28.5716 84.0532 29.6764C83.5055 30.7812 82.7541 31.6333 81.7991 32.2325C80.8441 32.8317 79.7533 33.1313 78.5268 33.1313C77.3003 33.1313 76.2095 32.8317 75.2545 32.2325C74.2995 31.6333 73.5481 30.7812 73.0004 29.6764C72.4527 28.5716 72.1788 27.2608 72.1788 25.7441C72.1788 24.2273 72.4527 22.9165 73.0004 21.8117C73.5481 20.7069 74.2995 19.8548 75.2545 19.2556C76.2095 18.6564 77.3003 18.3568 78.5268 18.3568C79.7533 18.3568 80.8441 18.6564 81.7991 19.2556C82.7541 19.8548 83.5055 20.7069 84.0532 21.8117C84.6009 22.9165 84.8748 24.2273 84.8748 25.7441ZM83.1895 25.7441C83.1895 24.4988 82.9811 23.4478 82.5645 22.5911C82.1525 21.7344 81.5931 21.086 80.8862 20.646C80.184 20.2059 79.3975 19.9859 78.5268 19.9859C77.656 19.9859 76.8672 20.2059 76.1603 20.646C75.4581 21.086 74.8987 21.7344 74.482 22.5911C74.0701 23.4478 73.8641 24.4988 73.8641 25.7441C73.8641 26.9893 74.0701 28.0403 74.482 28.897C74.8987 29.7537 75.4581 30.4021 76.1603 30.8421C76.8672 31.2822 77.656 31.5022 78.5268 31.5022C79.3975 31.5022 80.184 31.2822 80.8862 30.8421C81.5931 30.4021 82.1525 29.7537 82.5645 28.897C82.9811 28.0403 83.1895 26.9893 83.1895 25.7441ZM87.4075 18.5534H89.486L94.3734 30.491H94.542L99.4294 18.5534H101.508V32.9347H99.8788V22.0083H99.7383L95.2442 32.9347H93.6712L89.1771 22.0083H89.0366V32.9347H87.4075V18.5534ZM104.604 18.5534H106.683L111.57 30.491H111.739L116.626 18.5534H118.705V32.9347H117.075V22.0083H116.935L112.441 32.9347H110.868L106.374 22.0083H106.233V32.9347H104.604V18.5534ZM121.801 32.9347V18.5534H130.48V20.0983H123.542V24.9576H130.031V26.5024H123.542V31.3898H130.593V32.9347H121.801ZM133.224 32.9347V18.5534H138.083C139.206 18.5534 140.129 18.7453 140.85 19.1292C141.57 19.5084 142.104 20.0304 142.451 20.6952C142.797 21.3599 142.97 22.116 142.97 22.9633C142.97 23.8106 142.797 24.562 142.451 25.2174C142.104 25.8728 141.573 26.3877 140.857 26.7623C140.14 27.1321 139.225 27.317 138.111 27.317H134.179V25.7441H138.055C138.823 25.7441 139.44 25.6317 139.909 25.407C140.381 25.1823 140.723 24.8639 140.934 24.452C141.149 24.0353 141.257 23.5391 141.257 22.9633C141.257 22.3875 141.149 21.8842 140.934 21.4535C140.718 21.0229 140.374 20.6905 139.902 20.4564C139.429 20.2176 138.804 20.0983 138.027 20.0983H134.965V32.9347H133.224ZM139.993 26.4743L143.532 32.9347H141.51L138.027 26.4743H139.993ZM157.049 23.0476H155.308C155.205 22.5466 155.024 22.1066 154.767 21.7274C154.514 21.3482 154.205 21.0299 153.84 20.7724C153.48 20.5102 153.079 20.3136 152.639 20.1825C152.199 20.0515 151.74 19.9859 151.263 19.9859C150.392 19.9859 149.603 20.2059 148.896 20.646C148.194 21.086 147.635 21.7344 147.218 22.5911C146.806 23.4478 146.6 24.4988 146.6 25.7441C146.6 26.9893 146.806 28.0403 147.218 28.897C147.635 29.7537 148.194 30.4021 148.896 30.8421C149.603 31.2822 150.392 31.5022 151.263 31.5022C151.74 31.5022 152.199 31.4366 152.639 31.3056C153.079 31.1745 153.48 30.9802 153.84 30.7227C154.205 30.4606 154.514 30.1399 154.767 29.7607C155.024 29.3768 155.205 28.9368 155.308 28.4405H157.049C156.918 29.1755 156.679 29.8333 156.333 30.4138C155.986 30.9942 155.556 31.4881 155.041 31.8954C154.526 32.298 153.948 32.6047 153.306 32.8153C152.67 33.026 151.988 33.1313 151.263 33.1313C150.036 33.1313 148.946 32.8317 147.991 32.2325C147.036 31.6333 146.284 30.7812 145.736 29.6764C145.189 28.5716 144.915 27.2608 144.915 25.7441C144.915 24.2273 145.189 22.9165 145.736 21.8117C146.284 20.7069 147.036 19.8548 147.991 19.2556C148.946 18.6564 150.036 18.3568 151.263 18.3568C151.988 18.3568 152.67 18.4621 153.306 18.6728C153.948 18.8834 154.526 19.1924 155.041 19.5997C155.556 20.0023 155.986 20.4939 156.333 21.0743C156.679 21.6502 156.918 22.3079 157.049 23.0476ZM159.468 32.9347V18.5534H168.147V20.0983H161.209V24.9576H167.698V26.5024H161.209V31.3898H168.259V32.9347H159.468Z" fill="black"/>
<defs>
<filter id="filter0_i_606_126" x="-10.9597" y="-5.98484" width="211.895" height="55.3119" filterUnits="userSpaceOnUse" color-interpolation-filters="sRGB">
<feFlood flood-opacity="0" result="BackgroundImageFix"/>
<feBlend mode="normal" in="SourceGraphic" in2="BackgroundImageFix" result="shape"/>
<feColorMatrix in="SourceAlpha" type="matrix" values="0 0 0 0 0 0 0 0 0 0 0 0 0 0 0 0 0 0 127 0" result="hardAlpha"/>
<feOffset dx="-10.9597" dy="-6.39317"/>
<feGaussianBlur stdDeviation="13.1517"/>
<feComposite in2="hardAlpha" operator="arithmetic" k2="-1" k3="1"/>
<feColorMatrix type="matrix" values="0 0 0 0 0.19 0 0 0 0 0.8542 0 0 0 0 1 0 0 0 0.52 0"/>
<feBlend mode="normal" in2="shape" result="effect1_innerShadow_606_126"/>
</filter>
</defs>
</svg>
