<svg width="254" height="49" viewBox="0 0 254 49" fill="none" xmlns="http://www.w3.org/2000/svg">
<g filter="url(#filter0_i_606_129)">
<rect width="254" height="48.5169" rx="24.2584" fill="white"/>
</g>
<path d="M40.1133 21.395C39.959 20.9228 39.7556 20.4997 39.5031 20.1256C39.2553 19.7469 38.9584 19.4243 38.6125 19.1578C38.2711 18.8913 37.8831 18.6879 37.4483 18.5477C37.0134 18.4074 36.5365 18.3373 36.0176 18.3373C35.1666 18.3373 34.3928 18.557 33.6962 18.9965C32.9995 19.436 32.4455 20.0836 32.0341 20.9392C31.6226 21.7948 31.4169 22.8444 31.4169 24.0881C31.4169 25.3318 31.6249 26.3814 32.0411 27.2371C32.4572 28.0927 33.0206 28.7402 33.7313 29.1797C34.4419 29.6192 35.2414 29.839 36.1298 29.839C36.9527 29.839 37.6774 29.6636 38.3039 29.313C38.9351 28.9576 39.426 28.4574 39.7766 27.8121C40.132 27.1622 40.3097 26.3978 40.3097 25.5188L40.8427 25.631H36.5225V24.0881H41.9928V25.631C41.9928 26.8139 41.7404 27.8425 41.2354 28.7168C40.7351 29.5912 40.0432 30.2691 39.1595 30.7507C38.2805 31.2276 37.2706 31.466 36.1298 31.466C34.858 31.466 33.7406 31.1668 32.7775 30.5683C31.819 29.9699 31.0709 29.1189 30.5332 28.0155C30.0002 26.9121 29.7337 25.603 29.7337 24.0881C29.7337 22.952 29.8857 21.9304 30.1896 21.0233C30.4982 20.1116 30.933 19.3355 31.494 18.6949C32.0551 18.0544 32.719 17.5635 33.4858 17.2222C34.2526 16.8809 35.0965 16.7102 36.0176 16.7102C36.775 16.7102 37.481 16.8248 38.1356 17.0539C38.7948 17.2783 39.3816 17.5985 39.8959 18.0147C40.4149 18.4261 40.8473 18.9194 41.1933 19.4945C41.5393 20.0649 41.7778 20.6984 41.9087 21.395H40.1133ZM44.7222 31.2697H42.8988L48.1727 16.9066H49.9681L55.2421 31.2697H53.4186L49.1265 19.1789H49.0143L44.7222 31.2697ZM45.3955 25.6591H52.7454V27.202H45.3955V25.6591ZM57.0843 16.9066H59.1602L64.0414 28.8291H64.2097L69.0909 16.9066H71.1668V31.2697H69.5398V20.3571H69.3995L64.911 31.2697H63.3401L58.8516 20.3571H58.7114V31.2697H57.0843V16.9066ZM74.2592 31.2697V16.9066H82.9275V18.4495H75.9985V23.3026H82.4787V24.8455H75.9985V29.7267H83.0397V31.2697H74.2592ZM95.2593 31.2697H90.8269V16.9066H95.4557C96.8489 16.9066 98.0412 17.1941 99.0324 17.7692C100.024 18.3396 100.783 19.1602 101.312 20.2308C101.84 21.2969 102.104 22.5733 102.104 24.0601C102.104 25.5562 101.838 26.8443 101.305 27.9243C100.772 28.9997 99.9955 29.8273 98.9763 30.407C97.957 30.9821 96.718 31.2697 95.2593 31.2697ZM92.5662 29.7267H95.1471C96.3346 29.7267 97.3188 29.4976 98.0996 29.0394C98.8804 28.5813 99.4625 27.929 99.8459 27.0828C100.229 26.2365 100.421 25.2289 100.421 24.0601C100.421 22.9005 100.232 21.9023 99.8529 21.0654C99.4742 20.2238 98.9085 19.5786 98.1557 19.1298C97.403 18.6762 96.4656 18.4495 95.3434 18.4495H92.5662V29.7267ZM104.627 31.2697V16.9066H113.295V18.4495H106.366V23.3026H112.846V24.8455H106.366V29.7267H113.407V31.2697H104.627ZM116.624 16.9066L120.888 28.9974H121.056L125.32 16.9066H127.144L121.87 31.2697H120.075L114.801 16.9066H116.624ZM128.986 31.2697V16.9066H137.654V18.4495H130.725V23.3026H137.206V24.8455H130.725V29.7267H137.767V31.2697H128.986ZM140.394 31.2697V16.9066H142.134V29.7267H148.81V31.2697H140.394ZM162.668 24.0881C162.668 25.603 162.394 26.9121 161.847 28.0155C161.3 29.1189 160.55 29.9699 159.596 30.5683C158.642 31.1668 157.553 31.466 156.328 31.466C155.103 31.466 154.014 31.1668 153.06 30.5683C152.106 29.9699 151.356 29.1189 150.809 28.0155C150.262 26.9121 149.988 25.603 149.988 24.0881C149.988 22.5733 150.262 21.2641 150.809 20.1607C151.356 19.0573 152.106 18.2064 153.06 17.6079C154.014 17.0094 155.103 16.7102 156.328 16.7102C157.553 16.7102 158.642 17.0094 159.596 17.6079C160.55 18.2064 161.3 19.0573 161.847 20.1607C162.394 21.2641 162.668 22.5733 162.668 24.0881ZM160.985 24.0881C160.985 22.8444 160.777 21.7948 160.361 20.9392C159.949 20.0836 159.39 19.436 158.684 18.9965C157.983 18.557 157.198 18.3373 156.328 18.3373C155.458 18.3373 154.67 18.557 153.964 18.9965C153.263 19.436 152.704 20.0836 152.288 20.9392C151.877 21.7948 151.671 22.8444 151.671 24.0881C151.671 25.3318 151.877 26.3814 152.288 27.2371C152.704 28.0927 153.263 28.7402 153.964 29.1797C154.67 29.6192 155.458 29.839 156.328 29.839C157.198 29.839 157.983 29.6192 158.684 29.1797C159.39 28.7402 159.949 28.0927 160.361 27.2371C160.777 26.3814 160.985 25.3318 160.985 24.0881ZM165.197 31.2697V16.9066H170.051C171.177 16.9066 172.098 17.11 172.814 17.5167C173.534 17.9188 174.067 18.4635 174.413 19.1508C174.759 19.8381 174.932 20.6049 174.932 21.4511C174.932 22.2974 174.759 23.0665 174.413 23.7585C174.071 24.4505 173.543 25.0022 172.828 25.4136C172.112 25.8204 171.196 26.0238 170.079 26.0238H166.6V24.4809H170.023C170.794 24.4809 171.413 24.3476 171.881 24.0811C172.349 23.8146 172.688 23.4546 172.898 23.0011C173.113 22.5429 173.221 22.0262 173.221 21.4511C173.221 20.8761 173.113 20.3618 172.898 19.9082C172.688 19.4547 172.346 19.0994 171.874 18.8422C171.402 18.5804 170.775 18.4495 169.994 18.4495H166.937V31.2697H165.197ZM177.339 16.9066H179.414L184.296 28.8291H184.464L189.345 16.9066H191.421V31.2697H189.794V20.3571H189.654L185.165 31.2697H183.594L179.106 20.3571H178.966V31.2697H177.339V16.9066ZM194.513 31.2697V16.9066H203.182V18.4495H196.253V23.3026H202.733V24.8455H196.253V29.7267H203.294V31.2697H194.513ZM217.311 16.9066V31.2697H215.628L207.801 19.9924H207.661V31.2697H205.922V16.9066H207.605L215.46 28.2119H215.6V16.9066H217.311ZM219.611 18.4495V16.9066H230.383V18.4495H225.867V31.2697H224.128V18.4495H219.611Z" fill="black"/>
<defs>
<filter id="filter0_i_606_129" x="-11.1554" y="-6.50124" width="265.155" height="55.0181" filterUnits="userSpaceOnUse" color-interpolation-filters="sRGB">
<feFlood flood-opacity="0" result="BackgroundImageFix"/>
<feBlend mode="normal" in="SourceGraphic" in2="BackgroundImageFix" result="shape"/>
<feColorMatrix in="SourceAlpha" type="matrix" values="0 0 0 0 0 0 0 0 0 0 0 0 0 0 0 0 0 0 127 0" result="hardAlpha"/>
<feOffset dx="-11.1554" dy="-6.50124"/>
<feGaussianBlur stdDeviation="13.3834"/>
<feComposite in2="hardAlpha" operator="arithmetic" k2="-1" k3="1"/>
<feColorMatrix type="matrix" values="0 0 0 0 1 0 0 0 0 0.263333 0 0 0 0 0.263333 0 0 0 0.52 0"/>
<feBlend mode="normal" in2="shape" result="effect1_innerShadow_606_129"/>
</filter>
</defs>
</svg>
