<svg width="180" height="49" viewBox="0 0 180 49" fill="none" xmlns="http://www.w3.org/2000/svg">
<g filter="url(#filter0_i_606_120)">
<rect width="180" height="48.4591" rx="24.2295" fill="white"/>
</g>
<path d="M30.4679 32.889V18.6428H35.4485C36.4409 18.6428 37.2594 18.8144 37.904 19.1576C38.5486 19.4961 39.0286 19.9529 39.344 20.5279C39.6593 21.0983 39.817 21.7313 39.817 22.4269C39.817 23.0391 39.708 23.5446 39.49 23.9434C39.2767 24.3422 38.9938 24.6575 38.6414 24.8894C38.2936 25.1213 37.9156 25.2929 37.5075 25.4042V25.5433C37.9435 25.5711 38.3817 25.7241 38.8222 26.0024C39.2628 26.2806 39.6315 26.6795 39.9283 27.1989C40.2251 27.7182 40.3735 28.3536 40.3735 29.1048C40.3735 29.819 40.2112 30.4613 39.8865 31.0317C39.5619 31.6021 39.0495 32.0542 38.3492 32.3881C37.649 32.722 36.7377 32.889 35.6155 32.889H30.4679ZM32.193 31.3586H35.6155C36.7424 31.3586 37.5423 31.1407 38.0153 30.7047C38.493 30.2642 38.7318 29.7309 38.7318 29.1048C38.7318 28.6225 38.6089 28.1773 38.3631 27.7693C38.1174 27.3565 37.7672 27.0273 37.3128 26.7815C36.8583 26.5311 36.3204 26.4059 35.6989 26.4059H32.193V31.3586ZM32.193 24.9033H35.3929C35.9123 24.9033 36.3806 24.8013 36.798 24.5973C37.22 24.3932 37.5539 24.1057 37.7997 23.7347C38.0501 23.3637 38.1753 22.9278 38.1753 22.4269C38.1753 21.8009 37.9574 21.2699 37.5215 20.834C37.0855 20.3934 36.3946 20.1731 35.4485 20.1731H32.193V24.9033ZM42.8163 32.889V18.6428H44.5415V31.3586H51.1637V32.889H42.8163ZM64.9086 25.7659C64.9086 27.2684 64.6373 28.5669 64.0947 29.6613C63.5521 30.7558 62.8078 31.5998 61.8618 32.1934C60.9157 32.787 59.8352 33.0837 58.6202 33.0837C57.4052 33.0837 56.3247 32.787 55.3786 32.1934C54.4326 31.5998 53.6883 30.7558 53.1457 29.6613C52.6031 28.5669 52.3318 27.2684 52.3318 25.7659C52.3318 24.2634 52.6031 22.9649 53.1457 21.8704C53.6883 20.776 54.4326 19.932 55.3786 19.3384C56.3247 18.7448 57.4052 18.448 58.6202 18.448C59.8352 18.448 60.9157 18.7448 61.8618 19.3384C62.8078 19.932 63.5521 20.776 64.0947 21.8704C64.6373 22.9649 64.9086 24.2634 64.9086 25.7659ZM63.2391 25.7659C63.2391 24.5323 63.0327 23.4912 62.62 22.6426C62.2119 21.7939 61.6577 21.1516 60.9575 20.7157C60.2618 20.2798 59.4828 20.0618 58.6202 20.0618C57.7576 20.0618 56.9762 20.2798 56.276 20.7157C55.5804 21.1516 55.0262 21.7939 54.6135 22.6426C54.2054 23.4912 54.0013 24.5323 54.0013 25.7659C54.0013 26.9994 54.2054 28.0405 54.6135 28.8892C55.0262 29.7378 55.5804 30.3801 56.276 30.816C56.9762 31.252 57.7576 31.4699 58.6202 31.4699C59.4828 31.4699 60.2618 31.252 60.9575 30.816C61.6577 30.3801 62.2119 29.7378 62.62 28.8892C63.0327 28.0405 63.2391 26.9994 63.2391 25.7659ZM78.8812 23.0947H77.1561C77.0541 22.5985 76.8755 22.1626 76.6205 21.787C76.3701 21.4113 76.064 21.096 75.7023 20.8409C75.3452 20.5812 74.9487 20.3865 74.5128 20.2566C74.0768 20.1268 73.6224 20.0618 73.1494 20.0618C72.2868 20.0618 71.5054 20.2798 70.8051 20.7157C70.1095 21.1516 69.5553 21.7939 69.1426 22.6426C68.7345 23.4912 68.5305 24.5323 68.5305 25.7659C68.5305 26.9994 68.7345 28.0405 69.1426 28.8892C69.5553 29.7378 70.1095 30.3801 70.8051 30.816C71.5054 31.252 72.2868 31.4699 73.1494 31.4699C73.6224 31.4699 74.0768 31.405 74.5128 31.2752C74.9487 31.1453 75.3452 30.9529 75.7023 30.6978C76.064 30.4381 76.3701 30.1204 76.6205 29.7448C76.8755 29.3645 77.0541 28.9286 77.1561 28.437H78.8812C78.7514 29.1651 78.5149 29.8167 78.1717 30.3917C77.8285 30.9668 77.4019 31.456 76.8918 31.8595C76.3816 32.2583 75.8089 32.562 75.1736 32.7707C74.5429 32.9794 73.8682 33.0837 73.1494 33.0837C71.9344 33.0837 70.8538 32.787 69.9078 32.1934C68.9618 31.5998 68.2175 30.7558 67.6749 29.6613C67.1323 28.5669 66.861 27.2684 66.861 25.7659C66.861 24.2634 67.1323 22.9649 67.6749 21.8704C68.2175 20.776 68.9618 19.932 69.9078 19.3384C70.8538 18.7448 71.9344 18.448 73.1494 18.448C73.8682 18.448 74.5429 18.5524 75.1736 18.7611C75.8089 18.9697 76.3816 19.2758 76.8918 19.6793C77.4019 20.0781 77.8285 20.565 78.1717 21.1401C78.5149 21.7105 78.7514 22.362 78.8812 23.0947ZM81.2771 32.889V18.6428H83.0022V25.7102H83.1692L89.5688 18.6428H91.8226L85.8404 25.0703L91.8226 32.889H89.7358L84.783 26.2667L83.0022 28.2701V32.889H81.2771ZM104.458 23.0947H102.733C102.631 22.5985 102.452 22.1626 102.197 21.787C101.947 21.4113 101.641 21.096 101.279 20.8409C100.922 20.5812 100.525 20.3865 100.09 20.2566C99.6536 20.1268 99.1991 20.0618 98.7261 20.0618C97.8636 20.0618 97.0822 20.2798 96.3819 20.7157C95.6863 21.1516 95.1321 21.7939 94.7194 22.6426C94.3113 23.4912 94.1072 24.5323 94.1072 25.7659C94.1072 26.9994 94.3113 28.0405 94.7194 28.8892C95.1321 29.7378 95.6863 30.3801 96.3819 30.816C97.0822 31.252 97.8636 31.4699 98.7261 31.4699C99.1991 31.4699 99.6536 31.405 100.09 31.2752C100.525 31.1453 100.922 30.9529 101.279 30.6978C101.641 30.4381 101.947 30.1204 102.197 29.7448C102.452 29.3645 102.631 28.9286 102.733 28.437H104.458C104.328 29.1651 104.092 29.8167 103.748 30.3917C103.405 30.9668 102.979 31.456 102.469 31.8595C101.958 32.2583 101.386 32.562 100.75 32.7707C100.12 32.9794 99.4449 33.0837 98.7261 33.0837C97.5111 33.0837 96.4306 32.787 95.4846 32.1934C94.5385 31.5998 93.7942 30.7558 93.2516 29.6613C92.7091 28.5669 92.4378 27.2684 92.4378 25.7659C92.4378 24.2634 92.7091 22.9649 93.2516 21.8704C93.7942 20.776 94.5385 19.932 95.4846 19.3384C96.4306 18.7448 97.5111 18.448 98.7261 18.448C99.4449 18.448 100.12 18.5524 100.75 18.7611C101.386 18.9697 101.958 19.2758 102.469 19.6793C102.979 20.0781 103.405 20.565 103.748 21.1401C104.092 21.7105 104.328 22.362 104.458 23.0947ZM106.854 32.889V18.6428H108.579V24.9868H116.175V18.6428H117.9V32.889H116.175V26.5171H108.579V32.889H106.854ZM121.547 32.889H119.738L124.969 18.6428H126.75L131.981 32.889H130.172L125.915 20.8966H125.804L121.547 32.889ZM122.214 27.3241H129.504V28.8544H122.214V27.3241ZM135.533 18.6428V32.889H133.808V18.6428H135.533ZM149.897 18.6428V32.889H148.228L140.465 21.7035H140.325V32.889H138.6V18.6428H140.27L148.061 29.8561H148.2V18.6428H149.897Z" fill="black"/>
<defs>
<filter id="filter0_i_606_120" x="-10.8568" y="-6.33311" width="190.857" height="54.7922" filterUnits="userSpaceOnUse" color-interpolation-filters="sRGB">
<feFlood flood-opacity="0" result="BackgroundImageFix"/>
<feBlend mode="normal" in="SourceGraphic" in2="BackgroundImageFix" result="shape"/>
<feColorMatrix in="SourceAlpha" type="matrix" values="0 0 0 0 0 0 0 0 0 0 0 0 0 0 0 0 0 0 127 0" result="hardAlpha"/>
<feOffset dx="-10.8568" dy="-6.33311"/>
<feGaussianBlur stdDeviation="13.0854"/>
<feComposite in2="hardAlpha" operator="arithmetic" k2="-1" k3="1"/>
<feColorMatrix type="matrix" values="0 0 0 0 0.253333 0 0 0 0 1 0 0 0 0 0.4176 0 0 0 0.52 0"/>
<feBlend mode="normal" in2="shape" result="effect1_innerShadow_606_120"/>
</filter>
</defs>
</svg>
