<svg width="245" height="51" viewBox="0 0 245 51" fill="none" xmlns="http://www.w3.org/2000/svg">
<g filter="url(#filter0_i_606_117)">
<rect y="0.623535" width="244.782" height="49.3999" rx="24.6999" fill="white"/>
</g>
<path d="M30.4258 33.3024L26.4547 18.7796H28.2417L31.2767 30.6077H31.4185L34.5103 18.7796H36.4958L39.5876 30.6077H39.7294L42.7644 18.7796H44.5514L40.5803 33.3024H38.765L35.5598 21.7295H35.4463L32.2411 33.3024H30.4258ZM46.3432 33.3024V18.7796H55.1079V20.3397H48.1018V25.2468H54.6541V26.8068H48.1018V31.7423H55.2214V33.3024H46.3432ZM57.8783 33.3024V18.7796H62.9556C63.9673 18.7796 64.8017 18.9545 65.4588 19.3044C66.1159 19.6495 66.6052 20.1151 66.9267 20.7013C67.2481 21.2828 67.4089 21.9281 67.4089 22.6372C67.4089 23.2612 67.2978 23.7765 67.0756 24.1831C66.8581 24.5897 66.5698 24.9111 66.2105 25.1475C65.8559 25.3839 65.4706 25.5588 65.0546 25.6722V25.8141C65.499 25.8424 65.9457 25.9984 66.3948 26.2821C66.8439 26.5657 67.2198 26.9723 67.5223 27.5018C67.8249 28.0312 67.9762 28.6789 67.9762 29.4448C67.9762 30.1728 67.8107 30.8275 67.4798 31.409C67.1489 31.9905 66.6265 32.4514 65.9126 32.7918C65.1988 33.1322 64.2698 33.3024 63.1258 33.3024H57.8783ZM59.6369 31.7423H63.1258C64.2746 31.7423 65.0901 31.5201 65.5723 31.0757C66.0592 30.6266 66.3026 30.083 66.3026 29.4448C66.3026 28.9531 66.1774 28.4993 65.9268 28.0833C65.6763 27.6625 65.3193 27.3269 64.856 27.0763C64.3928 26.821 63.8444 26.6934 63.2109 26.6934H59.6369V31.7423ZM59.6369 25.1617H62.8989C63.4284 25.1617 63.9058 25.0577 64.3313 24.8497C64.7615 24.6417 65.1019 24.3486 65.3524 23.9704C65.6077 23.5922 65.7354 23.1478 65.7354 22.6372C65.7354 21.999 65.5132 21.4577 65.0688 21.0133C64.6244 20.5642 63.92 20.3397 62.9556 20.3397H59.6369V25.1617ZM80.1649 33.3024H75.6833V18.7796H80.3635C81.7723 18.7796 82.9778 19.0703 83.98 19.6518C84.9822 20.2286 85.7504 21.0582 86.2846 22.1408C86.8188 23.2187 87.0859 24.5093 87.0859 26.0126C87.0859 27.5254 86.8165 28.8278 86.2775 29.9199C85.7386 31.0072 84.9538 31.8439 83.9233 32.4302C82.8927 33.0116 81.6399 33.3024 80.1649 33.3024ZM77.4419 31.7423H80.0515C81.2522 31.7423 82.2474 31.5107 83.0369 31.0474C83.8263 30.5841 84.4149 29.9246 84.8026 29.0689C85.1902 28.2133 85.384 27.1945 85.384 26.0126C85.384 24.8402 85.1926 23.8309 84.8097 22.9847C84.4267 22.1337 83.8547 21.4814 83.0936 21.0275C82.3325 20.569 81.3846 20.3397 80.25 20.3397H77.4419V31.7423ZM89.6365 33.3024V18.7796H98.4012V20.3397H91.3951V25.2468H97.9474V26.8068H91.3951V31.7423H98.5147V33.3024H89.6365ZM101.767 18.7796L106.079 31.0048H106.249L110.56 18.7796H112.404L107.071 33.3024H105.256L99.9235 18.7796H101.767ZM114.267 33.3024V18.7796H123.031V20.3397H116.025V25.2468H122.578V26.8068H116.025V31.7423H123.145V33.3024H114.267ZM125.802 33.3024V18.7796H127.56V31.7423H134.311V33.3024H125.802ZM148.323 26.041C148.323 27.5727 148.046 28.8964 147.493 30.0121C146.94 31.1277 146.181 31.9881 145.217 32.5932C144.253 33.1984 143.151 33.5009 141.913 33.5009C140.674 33.5009 139.572 33.1984 138.608 32.5932C137.644 31.9881 136.885 31.1277 136.332 30.0121C135.779 28.8964 135.502 27.5727 135.502 26.041C135.502 24.5093 135.779 23.1856 136.332 22.0699C136.885 20.9542 137.644 20.0938 138.608 19.4887C139.572 18.8836 140.674 18.5811 141.913 18.5811C143.151 18.5811 144.253 18.8836 145.217 19.4887C146.181 20.0938 146.94 20.9542 147.493 22.0699C148.046 23.1856 148.323 24.5093 148.323 26.041ZM146.621 26.041C146.621 24.7835 146.411 23.7222 145.99 22.857C145.574 21.9919 145.009 21.3372 144.295 20.8928C143.586 20.4484 142.792 20.2262 141.913 20.2262C141.033 20.2262 140.237 20.4484 139.523 20.8928C138.814 21.3372 138.249 21.9919 137.828 22.857C137.412 23.7222 137.204 24.7835 137.204 26.041C137.204 27.2985 137.412 28.3598 137.828 29.2249C138.249 30.0901 138.814 30.7448 139.523 31.1892C140.237 31.6336 141.033 31.8558 141.913 31.8558C142.792 31.8558 143.586 31.6336 144.295 31.1892C145.009 30.7448 145.574 30.0901 145.99 29.2249C146.411 28.3598 146.621 27.2985 146.621 26.041ZM150.881 33.3024V18.7796H155.788C156.927 18.7796 157.858 18.9853 158.582 19.3965C159.31 19.8031 159.849 20.3539 160.198 21.0488C160.548 21.7437 160.723 22.519 160.723 23.3747C160.723 24.2304 160.548 25.008 160.198 25.7077C159.853 26.4074 159.319 26.9652 158.596 27.3812C157.873 27.7925 156.946 27.9982 155.816 27.9982H152.299V26.4381H155.759C156.539 26.4381 157.166 26.3034 157.639 26.0339C158.111 25.7644 158.454 25.4004 158.667 24.9419C158.884 24.4786 158.993 23.9562 158.993 23.3747C158.993 22.7932 158.884 22.2732 158.667 21.8146C158.454 21.3561 158.109 20.9968 157.631 20.7368C157.154 20.472 156.52 20.3397 155.731 20.3397H152.639V33.3024H150.881ZM163.157 18.7796H165.256L170.191 30.8346H170.361L175.297 18.7796H177.396V33.3024H175.751V22.2685H175.609L171.071 33.3024H169.482L164.944 22.2685H164.802V33.3024H163.157V18.7796ZM180.523 33.3024V18.7796H189.287V20.3397H182.281V25.2468H188.833V26.8068H182.281V31.7423H189.401V33.3024H180.523ZM203.574 18.7796V33.3024H201.872L193.958 21.8997H193.816V33.3024H192.058V18.7796H193.76L201.702 30.2106H201.844V18.7796H203.574ZM205.899 20.3397V18.7796H216.791V20.3397H212.225V33.3024H210.466V20.3397H205.899Z" fill="black"/>
<defs>
<filter id="filter0_i_606_117" x="-11.0675" y="-5.8658" width="255.85" height="55.8892" filterUnits="userSpaceOnUse" color-interpolation-filters="sRGB">
<feFlood flood-opacity="0" result="BackgroundImageFix"/>
<feBlend mode="normal" in="SourceGraphic" in2="BackgroundImageFix" result="shape"/>
<feColorMatrix in="SourceAlpha" type="matrix" values="0 0 0 0 0 0 0 0 0 0 0 0 0 0 0 0 0 0 127 0" result="hardAlpha"/>
<feOffset dx="-11.0675" dy="-6.48934"/>
<feGaussianBlur stdDeviation="13.3589"/>
<feComposite in2="hardAlpha" operator="arithmetic" k2="-1" k3="1"/>
<feColorMatrix type="matrix" values="0 0 0 0 1 0 0 0 0 0.966267 0 0 0 0 0.156667 0 0 0 0.52 0"/>
<feBlend mode="normal" in2="shape" result="effect1_innerShadow_606_117"/>
</filter>
</defs>
</svg>
